<svg width="115" height="110" viewBox="0 0 115 110" fill="none" xmlns="http://www.w3.org/2000/svg">
<g clip-path="url(#clip0_185_1613)">
<path d="M82.3882 0.224075H63.6472L67.7988 44.5892L86.4142 38.402L82.3882 0.224075ZM75.0317 33.2038L73.0399 8.98428H75.0317L77.5682 32.5412L75.0317 33.2038Z" fill="#FF611B"/>
<path d="M6.41956 65.2505V0H30.3167V15.7742L18.3681 18.1347L16.6063 49.4338L31.0721 46.0804L32.1095 56.7105L6.41956 65.2505Z" fill="#FF611B"/>
<path d="M19.2491 46.4532L20.3812 19.1276L30.9465 18.1347V28.9406L34.5939 27.9457L34.2152 0H47.1703L47.9257 51.0912L34.7195 55.6442L34.3427 39.6228L29.6889 39.9956L29.94 44.0927L19.2491 46.4532Z" fill="#FF611B"/>
<path d="M108.677 0.224075V14.0762H93.4984V15.8978H108.677V31.2547L87.9655 37.7587V24.8415L96.5178 24.1789L95.8475 22.6065H87.2951L84.946 0.224075H108.677Z" fill="#FF611B"/>
<path d="M58.6166 0.224075H50.8177L48.8047 50.1795V51.0912L56.6036 48.3173L55.4716 35.8966L58.3635 35.7729L59.2445 47.3244L66.4136 45.0895L58.6166 0.224075ZM55.1798 31.5908V8.98428L57.7589 31.5908H55.1798Z" fill="#FF611B"/>
<path d="M0 71.4899V109.998H115V33.5708L0 71.4899ZM47.9257 61.5166L58.4485 57.914L57.7569 97.6604L47.9257 98.406V61.5166ZM12.5397 105.735L12.2886 101.885L10.5287 102.009L10.2775 105.735H4.9958L6.42152 74.5593L13.8012 72.5716L18.4551 105.735H12.5436H12.5397ZM19.8364 105.735L19.2491 76.2978H16.0634V71.9515L32.0786 66.734L32.6659 76.1742L27.6353 76.4234L28.1376 105.733H19.8364V105.735ZM36.9411 84.2467H33.0426V89.5878L35.809 89.7115L34.8025 93.8105H32.664V102.826L36.9411 102.702V105.559H29.1422V77.6384H36.9411V84.2467ZM60.8383 105.557H38.9599L38.701 75.104L34.1727 75.2277V65.7875L46.6255 61.8121V99.9166L60.8383 99.3216V105.553V105.557ZM62.1249 105.557L60.2104 57.2939L78.4472 50.9599L79.077 62.0149L68.8883 63.8771V71.9515H74.0445L73.9189 81.639H69.5162L69.6418 90.7063L78.6983 90.0862L79.9714 105.333L62.1229 105.559L62.1249 105.557ZM109.767 105.459H91.3018L90.0191 78.9056L89.5168 105.459H81.9709L80.9644 50.3379L109.767 40.7335L108.677 74.9321L95.3645 75.8014L109.767 105.461V105.459Z" fill="#FF611B"/>
<path d="M90.5716 67.2865V57.5991L97.1129 56.7298L99.0003 65.1752L90.5735 67.2865H90.5716Z" fill="#FF611B"/>
<path d="M10.3297 99.0126L10.832 78.5173L12.3408 99.0126H10.3278H10.3297Z" fill="#FF611B"/>
</g>
<defs>
<clipPath id="clip0_185_1613">
<rect width="115" height="110" fill="white"/>
</clipPath>
</defs>
</svg>
