<svg width="25" height="25" viewBox="0 0 25 25" fill="none" xmlns="http://www.w3.org/2000/svg">
<path d="M25 12.5C25 19.4052 19.4052 25 12.5 25C11.2097 25 9.96976 24.8034 8.8004 24.4405C9.30948 23.6089 10.0706 22.248 10.3528 21.1643C10.504 20.5796 11.129 18.1905 11.129 18.1905C11.5373 18.9667 12.7268 19.627 13.9919 19.627C17.7621 19.627 20.4788 16.1593 20.4788 11.8498C20.4788 7.72177 17.1069 4.63206 12.7722 4.63206C7.37903 4.63206 4.51109 8.25101 4.51109 12.1976C4.51109 14.0323 5.48891 16.3155 7.04637 17.0413C7.28327 17.1522 7.40927 17.1018 7.46472 16.875C7.50504 16.7036 7.71673 15.8518 7.8125 15.4587C7.84274 15.3327 7.82762 15.2218 7.72681 15.1008C7.21774 14.4708 6.80444 13.3216 6.80444 12.248C6.80444 9.49093 8.89113 6.8246 12.4496 6.8246C15.5192 6.8246 17.6714 8.91633 17.6714 11.9103C17.6714 15.2923 15.9627 17.6361 13.7399 17.6361C12.5151 17.6361 11.5927 16.623 11.8901 15.378C12.2429 13.8911 12.9234 12.2883 12.9234 11.2147C12.9234 10.2571 12.4093 9.45565 11.3407 9.45565C10.0857 9.45565 9.07762 10.751 9.07762 12.4899C9.07762 13.5988 9.4506 14.3448 9.4506 14.3448C9.4506 14.3448 8.21573 19.5766 7.98891 20.5544C7.7369 21.6331 7.8377 23.1552 7.94355 24.1431C3.29637 22.3236 0 17.7974 0 12.5C0 5.59476 5.59476 0 12.5 0C19.4052 0 25 5.59476 25 12.5Z" fill="white"/>
</svg>
