<svg width="18" height="26" viewBox="0 0 18 26" fill="none" xmlns="http://www.w3.org/2000/svg">
<path d="M10.1109 24.629C12.5156 21.5674 18 14.1472 18 9.97929C18 4.92439 13.9688 0.823242 9 0.823242C4.03125 0.823242 0 4.92439 0 9.97929C0 14.1472 5.48438 21.5674 7.88906 24.629C8.46562 25.3586 9.53438 25.3586 10.1109 24.629ZM9 6.92727C9.79565 6.92727 10.5587 7.24883 11.1213 7.82119C11.6839 8.39355 12 9.16985 12 9.97929C12 10.7887 11.6839 11.565 11.1213 12.1374C10.5587 12.7098 9.79565 13.0313 9 13.0313C8.20435 13.0313 7.44129 12.7098 6.87868 12.1374C6.31607 11.565 6 10.7887 6 9.97929C6 9.16985 6.31607 8.39355 6.87868 7.82119C7.44129 7.24883 8.20435 6.92727 9 6.92727Z" fill="white"/>
</svg>
