<svg width="52" height="25" viewBox="0 0 52 25" fill="none" xmlns="http://www.w3.org/2000/svg">
<rect x="27.74" width="3.26" height="25" fill="white"/>
<rect y="7" width="3.26" height="11" fill="white"/>
<rect x="28.4478" y="1.39258" width="3.26" height="27.9988" transform="rotate(74.1407 28.4478 1.39258)" fill="white"/>
<rect width="3.26" height="27.9988" transform="matrix(0.273276 -0.961936 -0.961936 -0.273276 28.4478 23.6201)" fill="white"/>
<rect x="33" y="5.84668" width="18" height="3.26" transform="rotate(-15.6198 33 5.84668)" fill="white"/>
<rect width="18" height="3.26" transform="matrix(0.96307 0.269253 0.269253 -0.96307 33 19.1499)" fill="white"/>
<rect x="34" y="10.8701" width="18" height="3.26" fill="white"/>
<mask id="path-8-inside-1_108_1632" fill="white">
<path d="M20 19C20 19.908 19.7939 20.8041 19.3973 21.6209C19.0007 22.4377 18.4238 23.1538 17.7103 23.7153C16.9967 24.2768 16.165 24.669 15.2778 24.8624C14.3907 25.0557 13.4712 25.0452 12.5887 24.8317C11.7062 24.6181 10.8836 24.207 10.1831 23.6294C9.4825 23.0517 8.92216 22.3227 8.54428 21.497C8.1664 20.6714 7.98084 19.7708 8.00156 18.863C8.02229 17.9553 8.24877 17.0641 8.66394 16.2566L11.4824 17.7056C11.2865 18.0866 11.1796 18.5071 11.1699 18.9354C11.1601 19.3637 11.2476 19.7886 11.4259 20.1781C11.6042 20.5677 11.8686 20.9117 12.1991 21.1842C12.5297 21.4567 12.9177 21.6507 13.3341 21.7514C13.7505 21.8522 14.1843 21.8572 14.6029 21.7659C15.0215 21.6747 15.4139 21.4896 15.7505 21.2247C16.0872 20.9598 16.3594 20.622 16.5465 20.2366C16.7336 19.8512 16.8309 19.4284 16.8309 19H20Z"/>
</mask>
<path d="M20 19C20 19.908 19.7939 20.8041 19.3973 21.6209C19.0007 22.4377 18.4238 23.1538 17.7103 23.7153C16.9967 24.2768 16.165 24.669 15.2778 24.8624C14.3907 25.0557 13.4712 25.0452 12.5887 24.8317C11.7062 24.6181 10.8836 24.207 10.1831 23.6294C9.4825 23.0517 8.92216 22.3227 8.54428 21.497C8.1664 20.6714 7.98084 19.7708 8.00156 18.863C8.02229 17.9553 8.24877 17.0641 8.66394 16.2566L11.4824 17.7056C11.2865 18.0866 11.1796 18.5071 11.1699 18.9354C11.1601 19.3637 11.2476 19.7886 11.4259 20.1781C11.6042 20.5677 11.8686 20.9117 12.1991 21.1842C12.5297 21.4567 12.9177 21.6507 13.3341 21.7514C13.7505 21.8522 14.1843 21.8572 14.6029 21.7659C15.0215 21.6747 15.4139 21.4896 15.7505 21.2247C16.0872 20.9598 16.3594 20.622 16.5465 20.2366C16.7336 19.8512 16.8309 19.4284 16.8309 19H20Z" stroke="white" stroke-width="6" mask="url(#path-8-inside-1_108_1632)"/>
</svg>
